<svg xmlns="http://www.w3.org/2000/svg" viewBox="0 0 1340.65 452.09"><title>Artboard 1</title><path d="M196.56.09c12-1.53,20.25,16.94,25.92,24.48,21.79,29,44.7,54.06,69.12,78.48,25.32,25.31,60.87,55.67,94.32,77.76,5,3.31,10.35,7.07,10.08,14.4-.34,9.58-20,18.7-25.92,23C308.45,263.33,256.16,314.73,211,377.37c-4,5.55-5.66,10.48-13,10.8-12.6.55-18.07-16.57-24.48-25.2C130.75,305.37,82.89,259.72,25.2,217.53,19.42,213.3.23,203.91,0,193.77-.23,183.13,18.73,174.71,25.2,170c62-45.08,110.09-98.06,157-158.4C185.41,7.42,189.21,1,196.56.09Zm-25.2,62.64c-36.47,27.34-63.24,54.37-92.16,87.84-9.73,11.26-28.42,28.16-28.08,44.64.16,7.72,7.62,17.48,12.24,23.76,16.7,22.71,32.15,38.63,52.56,57.6,18.45,17.14,37,36.2,58.32,51.12,6.85,4.78,16.79,11.68,25.2,11.52,14.29-.27,32.83-18,44.64-28.08C272.45,287,293,266.05,316.8,238.41c7.36-8.55,28.64-29.14,28.08-44.64-.26-7.29-7.75-16.27-12.24-22.32-26.66-35.9-52.78-63.18-83.52-90C237.49,71.3,222.94,57.11,208.8,51.93c-3.21-1.18-9.49-2.34-12.24-2.16C187,50.4,177.68,58,171.36,62.73Z" style="fill:#0072a7;fill-rule:evenodd"/><path d="M447.84,51.21H529.2V345.69H447.12V53.37C447.06,52.35,447,51.33,447.84,51.21Z" style="fill:#0072a7;fill-rule:evenodd"/><path d="M573.12,51.21H797.76v56.88H654.48v60.48c42.48,1.68,88.08.24,131.76.72v56.16H654.48v63.36H797.76v56.88H572.4V53.37C572.34,52.35,572.28,51.33,573.12,51.21Z" style="fill:#0072a7;fill-rule:evenodd"/><path d="M844.56,51.21H1069.2v56.88H926.64c-1.68,19-.24,41-.72,61.2h131.76v56.16h-131c-1.67,19.45-.24,42-.72,62.64,46.32,1.68,95.76.24,143.28.72v56.88H843.84V53.37C843.78,52.35,843.73,51.33,844.56,51.21Z" style="fill:#0072a7;fill-rule:evenodd"/><path d="M1116.72,51.21h223.93v56.88H1197.36v60.48c42.73,1.68,88.56.24,132.49.72v56.16H1198.08c-1.67,19.45-.24,42-.72,62.64,46.33,1.68,95.76.24,143.29.72v56.88H1116V53.37C1115.94,52.35,1115.89,51.33,1116.72,51.21Z" style="fill:#0072a7;fill-rule:evenodd"/><path d="M195.12,59.85c10.17-2,18.34,4.93,25.2,10.08,40.31,30.22,71.59,61.29,103,103,5.61,7.44,11.57,13.41,11.52,22.32-.07,13.79-19.44,32.57-26.64,41C282.88,266,252.8,293.93,221,318.33c-6.57,5.05-14.75,10.95-23,10.8-14.21-.26-32.08-19.89-41-27.36-32.89-27.41-56.87-52.43-83.52-85.68-4.51-5.64-12.07-13.79-12.24-21.6-.27-12.67,17.52-29.76,26.64-40.32a578.51,578.51,0,0,1,67-66.24C166.19,78.24,179,66.62,193,59.85,193.5,59.59,194.53,60,195.12,59.85ZM175.68,152c4.57.47,11-.95,14.4.72-1.16,19.23-1.55,39.25-2.88,58.32,5.24,2.35,13.82,1.33,20.16.72C206.45,192.49,205,170,205.2,152H221c-7.86-21.42-15.25-43.31-23.76-64.08C190.67,109.88,182.21,130,175.68,152Zm-25.2,11.52C135,167,95.86,186.79,118.8,206c28.67,24,111.2,24.48,144,5.76,5.09-2.9,12-9.18,12.24-15.84.47-11.62-10-14-17.28-19.44,2.11-1.49,6.08-1.12,7.92-2.88-13.4-2-24.92-5.8-37.44-8.64,1.78,5.67,3.92,11,5.76,16.56,11.89-4.8,29.05,1.4,28.8,13-.16,7.69-11.38,12.83-21.6,15.84-25.33,7.45-71.33,7.48-91.44-2.88-4.28-2.21-9.38-7.89-9.36-11.52.07-13.23,23.68-16.22,32.4-20.88C164.67,173.34,158.84,161.65,150.48,163.53Zm36.72,64.08c-1.27,20.09-1.81,40.91-2.88,61.2,7.54.92,19.19,1.38,26.64,0-1.56-20-1-42.25-3.6-61.2C201.07,228.72,193.57,228.4,187.2,227.61Z" style="fill:#0072a7;fill-rule:evenodd"/><path d="M260.64,347.85c12.75-2.86,20.78,7.78,16.56,18.72-5,12.86-26.9,9.11-26.64-6.48C250.68,353.07,253.59,349.43,260.64,347.85Zm0,23c17.29,4.91,18-25,.72-20.16C252.35,353.23,252.21,368.5,260.64,370.89Z" style="fill:#0072a7;fill-rule:evenodd"/><path d="M259.2,353.61c3.8.28,9.09-.93,10.8,1.44.4,3.52-.07,6.17-2.88,6.48.5,2.17,3.69,5.39,2.88,6.48-5.45.9-3.56-5.56-7.2-6.48-2.09.55.66,5.93-1.44,6.48C256.71,367.14,260.36,358,259.2,353.61Zm2.88,5.76c3.17.29,6,.19,5-3.6h-5Z" style="fill:#0072a7;fill-rule:evenodd"/><path d="M459.24,449.69a1.1,1.1,0,0,1-.27.73,1.73,1.73,0,0,1-.87.53,8,8,0,0,1-1.62.33,28,28,0,0,1-5.18,0,8.09,8.09,0,0,1-1.64-.33,1.73,1.73,0,0,1-.87-.53,1.1,1.1,0,0,1-.27-.73V400.1a1.1,1.1,0,0,1,.27-.73,1.83,1.83,0,0,1,.89-.53,9.4,9.4,0,0,1,1.64-.33,22.52,22.52,0,0,1,2.56-.12,22.92,22.92,0,0,1,2.6.12,8.76,8.76,0,0,1,1.62.33,1.8,1.8,0,0,1,.87.53,1.1,1.1,0,0,1,.27.73Z" style="fill:#0072a7"/><path d="M503.64,435.41a16.17,16.17,0,0,1-1.54,7.26,15.08,15.08,0,0,1-4.18,5.22,18.26,18.26,0,0,1-6.17,3.14,26,26,0,0,1-7.55,1.06,26.65,26.65,0,0,1-5.05-.45,28.82,28.82,0,0,1-4.12-1.07,17.75,17.75,0,0,1-3-1.32,8.64,8.64,0,0,1-1.73-1.22,3.06,3.06,0,0,1-.75-1.52,13.93,13.93,0,0,1-.22-2.86,20.87,20.87,0,0,1,.08-2.11,6,6,0,0,1,.26-1.38,1.44,1.44,0,0,1,.49-.75,1.16,1.16,0,0,1,.71-.23,3.43,3.43,0,0,1,1.6.67,27.6,27.6,0,0,0,2.66,1.48,23.25,23.25,0,0,0,3.88,1.48,18.2,18.2,0,0,0,5.21.67,12.09,12.09,0,0,0,3.49-.46,7.78,7.78,0,0,0,2.62-1.32,5.56,5.56,0,0,0,1.64-2.11,6.71,6.71,0,0,0,.57-2.8,4.94,4.94,0,0,0-1-3.07,9.7,9.7,0,0,0-2.54-2.27,26.05,26.05,0,0,0-3.55-1.87c-1.33-.58-2.69-1.19-4.1-1.84a36.94,36.94,0,0,1-4.1-2.22,16.54,16.54,0,0,1-3.55-3,14,14,0,0,1-2.54-4.08,14.72,14.72,0,0,1-1-5.64,14.94,14.94,0,0,1,1.4-6.63,13.5,13.5,0,0,1,3.77-4.75,16,16,0,0,1,5.61-2.82,24.19,24.19,0,0,1,6.83-.94,26.23,26.23,0,0,1,7.23,1.06,19.77,19.77,0,0,1,2.88,1.09,6.77,6.77,0,0,1,1.66,1,2.81,2.81,0,0,1,.55.69,3.12,3.12,0,0,1,.25.75,9.35,9.35,0,0,1,.14,1.18c0,.47,0,1.06,0,1.76s0,1.45-.06,2a6.86,6.86,0,0,1-.21,1.34,1.59,1.59,0,0,1-.4.77,1,1,0,0,1-.71.24,3.32,3.32,0,0,1-1.42-.56c-.65-.38-1.45-.79-2.4-1.24a22.7,22.7,0,0,0-3.28-1.22A14.78,14.78,0,0,0,488,406a9.64,9.64,0,0,0-3,.43,6.27,6.27,0,0,0-2.17,1.18,4.73,4.73,0,0,0-1.3,1.8,6,6,0,0,0-.42,2.23,4.89,4.89,0,0,0,.95,3,9.19,9.19,0,0,0,2.56,2.27,27.88,27.88,0,0,0,3.63,1.87c1.35.58,2.73,1.2,4.14,1.84a39.37,39.37,0,0,1,4.14,2.22,16.39,16.39,0,0,1,3.61,3,13.68,13.68,0,0,1,2.56,4.06A14.19,14.19,0,0,1,503.64,435.41Z" style="fill:#0072a7"/><path d="M550,443.2c0,.68,0,1.25-.06,1.72a8.4,8.4,0,0,1-.18,1.22,3.36,3.36,0,0,1-.33.88,4.32,4.32,0,0,1-.64.83A8.27,8.27,0,0,1,547,449a19.31,19.31,0,0,1-3.12,1.4,27.18,27.18,0,0,1-4.23,1.12,27.52,27.52,0,0,1-5.13.45,27,27,0,0,1-9.74-1.67,19.17,19.17,0,0,1-7.39-5,22.14,22.14,0,0,1-4.66-8.26,41,41,0,0,1,.16-23.42,24.68,24.68,0,0,1,5-8.72,20.87,20.87,0,0,1,7.69-5.36,25.9,25.9,0,0,1,9.88-1.83,24.09,24.09,0,0,1,4.22.37,25.48,25.48,0,0,1,3.76,1,19.79,19.79,0,0,1,3.1,1.36,9.63,9.63,0,0,1,1.93,1.32,4.18,4.18,0,0,1,.75.92,3.14,3.14,0,0,1,.33.93,10.41,10.41,0,0,1,.18,1.34c0,.51.06,1.15.06,1.9s0,1.51-.08,2.08a6.06,6.06,0,0,1-.28,1.38,2,2,0,0,1-.49.77,1,1,0,0,1-.65.24,2.81,2.81,0,0,1-1.54-.71,26.38,26.38,0,0,0-2.42-1.58,20.18,20.18,0,0,0-3.53-1.59,15.11,15.11,0,0,0-4.89-.71,11.54,11.54,0,0,0-9.76,4.94,17.16,17.16,0,0,0-2.62,5.74,33.53,33.53,0,0,0,.06,15.6,15.47,15.47,0,0,0,2.72,5.58,11,11,0,0,0,4.26,3.27,14,14,0,0,0,5.62,1.08,16.14,16.14,0,0,0,4.91-.67,21.24,21.24,0,0,0,3.56-1.48c1-.55,1.8-1,2.43-1.47a3.07,3.07,0,0,1,1.48-.65,1.14,1.14,0,0,1,.65.17,1.23,1.23,0,0,1,.41.65,6,6,0,0,1,.24,1.36C549.93,441.45,550,442.23,550,443.2Z" style="fill:#0072a7"/><path d="M594.8,403a16.61,16.61,0,0,1-.1,2,6,6,0,0,1-.3,1.34,1.83,1.83,0,0,1-.51.75,1.06,1.06,0,0,1-.67.24H580.07v42.33a1.14,1.14,0,0,1-.26.73,1.81,1.81,0,0,1-.88.53,7.94,7.94,0,0,1-1.64.33,27.69,27.69,0,0,1-5.15,0,8.21,8.21,0,0,1-1.65-.33,1.78,1.78,0,0,1-.87-.53,1.09,1.09,0,0,1-.26-.73V407.36H556.21a1,1,0,0,1-.69-.24,1.81,1.81,0,0,1-.49-.75,5.42,5.42,0,0,1-.31-1.34,18.94,18.94,0,0,1-.1-2,19.89,19.89,0,0,1,.1-2.07,5.39,5.39,0,0,1,.31-1.36,1.67,1.67,0,0,1,.49-.73,1.06,1.06,0,0,1,.69-.22h37a1.1,1.1,0,0,1,.67.22,1.69,1.69,0,0,1,.51.73,5.92,5.92,0,0,1,.3,1.36A17.45,17.45,0,0,1,594.8,403Z" style="fill:#0072a7"/><path d="M634,447a15.48,15.48,0,0,1-.1,2,4.89,4.89,0,0,1-.31,1.28,1.58,1.58,0,0,1-.5.71,1.13,1.13,0,0,1-.67.23H606a3.32,3.32,0,0,1-2.26-.8,3.25,3.25,0,0,1-.91-2.57V402a3.27,3.27,0,0,1,.91-2.58,3.31,3.31,0,0,1,2.26-.79h26.22a1.07,1.07,0,0,1,.65.2,1.6,1.6,0,0,1,.48.71,5.28,5.28,0,0,1,.31,1.3,18.1,18.1,0,0,1,.1,2,17.21,17.21,0,0,1-.1,1.93,4.91,4.91,0,0,1-.31,1.27,1.66,1.66,0,0,1-.48.71,1,1,0,0,1-.65.23H613.48v12.82h15.86a1.09,1.09,0,0,1,.67.23,1.51,1.51,0,0,1,.51.69,4.63,4.63,0,0,1,.31,1.25,17.21,17.21,0,0,1,.1,1.93,16.93,16.93,0,0,1-.1,1.95,4.65,4.65,0,0,1-.31,1.24,1.44,1.44,0,0,1-.51.67,1.2,1.2,0,0,1-.67.2H613.48v14.81h18.91a1.13,1.13,0,0,1,.67.23,1.58,1.58,0,0,1,.5.71,4.89,4.89,0,0,1,.31,1.28A15.31,15.31,0,0,1,634,447Z" style="fill:#0072a7"/><path d="M660.92,430.74a8.6,8.6,0,0,1-.44,3.29,1.49,1.49,0,0,1-1.42.93H642.17a1.51,1.51,0,0,1-1.46-.95,8.41,8.41,0,0,1-.45-3.27,8.13,8.13,0,0,1,.45-3.21,1.51,1.51,0,0,1,1.46-.93h16.89a1.67,1.67,0,0,1,.83.2,1.71,1.71,0,0,1,.59.69,4.28,4.28,0,0,1,.34,1.3A15.56,15.56,0,0,1,660.92,430.74Z" style="fill:#0072a7"/><path d="M681.58,449.69a1.14,1.14,0,0,1-.26.73,1.83,1.83,0,0,1-.87.53,8.12,8.12,0,0,1-1.63.33,22.73,22.73,0,0,1-2.59.12,23,23,0,0,1-2.58-.12A8.21,8.21,0,0,1,672,451a1.83,1.83,0,0,1-.87-.53,1.14,1.14,0,0,1-.26-.73V400.1a1.14,1.14,0,0,1,.26-.73,1.88,1.88,0,0,1,.89-.53,9.34,9.34,0,0,1,1.65-.33,27.69,27.69,0,0,1,5.15,0,8.89,8.89,0,0,1,1.63.33,1.91,1.91,0,0,1,.87.53,1.14,1.14,0,0,1,.26.73Z" style="fill:#0072a7"/><path d="M737.72,431.59a24.87,24.87,0,0,1-1.42,8.65,17,17,0,0,1-4.18,6.45,18.29,18.29,0,0,1-6.82,4,29,29,0,0,1-9.34,1.38,29.47,29.47,0,0,1-8.89-1.24,17.27,17.27,0,0,1-6.65-3.75,16.34,16.34,0,0,1-4.16-6.27,24.54,24.54,0,0,1-1.44-8.79V400.1a1.18,1.18,0,0,1,.24-.73,1.71,1.71,0,0,1,.87-.53,9.34,9.34,0,0,1,1.65-.33,27.69,27.69,0,0,1,5.15,0,8.58,8.58,0,0,1,1.62.33,1.89,1.89,0,0,1,.88.53,1.14,1.14,0,0,1,.26.73v31a17.08,17.08,0,0,0,.77,5.41,10.06,10.06,0,0,0,2.21,3.8,9.14,9.14,0,0,0,3.45,2.25,12.78,12.78,0,0,0,4.49.75,12.2,12.2,0,0,0,4.5-.77,8.85,8.85,0,0,0,3.37-2.25,10.2,10.2,0,0,0,2.13-3.65,15.12,15.12,0,0,0,.75-4.94V400.1a1.13,1.13,0,0,1,.25-.73,1.68,1.68,0,0,1,.85-.53,8.84,8.84,0,0,1,1.64-.33,23,23,0,0,1,2.58-.12,22,22,0,0,1,2.54.12,8.86,8.86,0,0,1,1.6.33,1.68,1.68,0,0,1,.85.53,1.13,1.13,0,0,1,.25.73Z" style="fill:#0072a7"/><path d="M779.81,446.69a16.63,16.63,0,0,1-.11,2.05,5.69,5.69,0,0,1-.3,1.38,1.64,1.64,0,0,1-.51.79,1.12,1.12,0,0,1-.71.25H754.12a3.32,3.32,0,0,1-2.26-.8,3.21,3.21,0,0,1-.91-2.57V400.1a1.14,1.14,0,0,1,.26-.73,1.89,1.89,0,0,1,.88-.53,8.67,8.67,0,0,1,1.64-.33,23,23,0,0,1,2.58-.12,22.73,22.73,0,0,1,2.59.12,8.89,8.89,0,0,1,1.63.33,1.91,1.91,0,0,1,.87.53,1.09,1.09,0,0,1,.26.73v42.25h16.52a1.15,1.15,0,0,1,.71.22,1.54,1.54,0,0,1,.51.73,5,5,0,0,1,.3,1.34A16.75,16.75,0,0,1,779.81,446.69Z" style="fill:#0072a7"/><path d="M838,436.42a15.21,15.21,0,0,1-1.36,6.58,14.16,14.16,0,0,1-3.77,4.89,16.3,16.3,0,0,1-5.68,3,23.56,23.56,0,0,1-7.05,1,25,25,0,0,1-4.89-.45,26.36,26.36,0,0,1-4-1.1,19.48,19.48,0,0,1-3-1.34,8,8,0,0,1-1.66-1.17,3.05,3.05,0,0,1-.69-1.24,7.2,7.2,0,0,1-.23-2,10.09,10.09,0,0,1,.09-1.48,3.36,3.36,0,0,1,.24-.95,1,1,0,0,1,.41-.51,1,1,0,0,1,.56-.14,3.33,3.33,0,0,1,1.61.69,24.32,24.32,0,0,0,2.66,1.5,25.61,25.61,0,0,0,3.91,1.52,18.09,18.09,0,0,0,5.3.71,13.4,13.4,0,0,0,4.16-.61,9.79,9.79,0,0,0,3.25-1.72,7.62,7.62,0,0,0,2.09-2.74,9.08,9.08,0,0,0,.73-3.7,6.88,6.88,0,0,0-1-3.81A10.23,10.23,0,0,0,827,430.6a23.14,23.14,0,0,0-3.79-2.19c-1.42-.67-2.88-1.34-4.37-2a48.68,48.68,0,0,1-4.34-2.3,17.93,17.93,0,0,1-3.77-3,13.81,13.81,0,0,1-2.7-4,13.26,13.26,0,0,1-1-5.5,13.73,13.73,0,0,1,1.2-5.86,12.06,12.06,0,0,1,3.33-4.32,14.76,14.76,0,0,1,5.07-2.66,21.28,21.28,0,0,1,6.35-.91,20.8,20.8,0,0,1,3.51.3,23.17,23.17,0,0,1,3.33.81,18.65,18.65,0,0,1,2.78,1.14,7.48,7.48,0,0,1,1.61,1,3.26,3.26,0,0,1,.5.61,2.64,2.64,0,0,1,.21.57,7.14,7.14,0,0,1,.12.83c0,.33,0,.75,0,1.26a12.5,12.5,0,0,1-.06,1.3,4.88,4.88,0,0,1-.18.95,1.21,1.21,0,0,1-.35.57.79.79,0,0,1-.51.18,3.27,3.27,0,0,1-1.4-.57c-.63-.37-1.41-.8-2.33-1.27a19.69,19.69,0,0,0-3.27-1.3,14.29,14.29,0,0,0-4.24-.59,11.21,11.21,0,0,0-3.81.59,7.68,7.68,0,0,0-2.68,1.56,6.14,6.14,0,0,0-1.59,2.31,7.74,7.74,0,0,0-.52,2.84,6.82,6.82,0,0,0,1,3.78,10.52,10.52,0,0,0,2.7,2.8,23.35,23.35,0,0,0,3.84,2.23q2.15,1,4.38,2.05t4.38,2.27a18.57,18.57,0,0,1,3.84,2.93,13.4,13.4,0,0,1,2.72,4A13.1,13.1,0,0,1,838,436.42Z" style="fill:#0072a7"/><path d="M868.05,447.46a9.06,9.06,0,0,1-.16,1.87,2.12,2.12,0,0,1-.49,1,3.12,3.12,0,0,1-1,.61,7.58,7.58,0,0,1-1.48.47c-.55.12-1.14.22-1.76.3a14.82,14.82,0,0,1-1.87.13,14.07,14.07,0,0,1-4.87-.76,7.86,7.86,0,0,1-3.33-2.27,9.52,9.52,0,0,1-1.89-3.85,22.86,22.86,0,0,1-.58-5.5V418.12h-5.12a1.1,1.1,0,0,1-1-.65,4.44,4.44,0,0,1-.37-2.11,7.72,7.72,0,0,1,.1-1.3,3.74,3.74,0,0,1,.27-.87,1,1,0,0,1,.42-.49,1.31,1.31,0,0,1,.59-.14h5.08v-8.69a1,1,0,0,1,.14-.53,1.12,1.12,0,0,1,.53-.42,3.62,3.62,0,0,1,1-.27,14.29,14.29,0,0,1,1.62-.08,15,15,0,0,1,1.67.08,3.38,3.38,0,0,1,1,.27,1.3,1.3,0,0,1,.53.42.94.94,0,0,1,.16.53v8.69h9.38a1.2,1.2,0,0,1,.57.14,1.16,1.16,0,0,1,.42.49,3,3,0,0,1,.27.87,9.3,9.3,0,0,1,.08,1.3,4.44,4.44,0,0,1-.37,2.11,1.1,1.1,0,0,1-1,.65h-9.38v20.37a11.51,11.51,0,0,0,1.12,5.7c.74,1.29,2.08,1.93,4,1.93a7,7,0,0,0,1.66-.18,12.07,12.07,0,0,0,1.3-.39c.38-.13.7-.26,1-.38a1.85,1.85,0,0,1,.73-.18.76.76,0,0,1,.39.1.64.64,0,0,1,.28.38,5.07,5.07,0,0,1,.19.77A8.19,8.19,0,0,1,868.05,447.46Z" style="fill:#0072a7"/><path d="M910,450.14a1,1,0,0,1-.15.55,1,1,0,0,1-.5.38,3.78,3.78,0,0,1-1,.25,11.49,11.49,0,0,1-1.44.08,12.31,12.31,0,0,1-1.52-.08,3.42,3.42,0,0,1-.93-.25.93.93,0,0,1-.47-.38,1.15,1.15,0,0,1-.12-.55v-4.83a22.73,22.73,0,0,1-6.17,5,13.21,13.21,0,0,1-6.17,1.59,14,14,0,0,1-6.15-1.22,10.88,10.88,0,0,1-4-3.31,13.4,13.4,0,0,1-2.21-4.87,29.1,29.1,0,0,1-.67-6.76V413.61a1,1,0,0,1,.14-.54,1.25,1.25,0,0,1,.55-.41,3.67,3.67,0,0,1,1.06-.25q.65-.06,1.62-.06t1.62.06a3.52,3.52,0,0,1,1,.25,1.38,1.38,0,0,1,.55.41.93.93,0,0,1,.16.54v21.27a22,22,0,0,0,.47,5.13,9.42,9.42,0,0,0,1.42,3.29,6.52,6.52,0,0,0,2.41,2.11,7.36,7.36,0,0,0,3.41.75,8.54,8.54,0,0,0,5-1.78,28.42,28.42,0,0,0,5.3-5.24V413.61a1,1,0,0,1,.14-.54,1.25,1.25,0,0,1,.55-.41,3.61,3.61,0,0,1,1-.25q.63-.06,1.65-.06t1.62.06a3.3,3.3,0,0,1,1,.25,1.6,1.6,0,0,1,.54.41.83.83,0,0,1,.19.54Z" style="fill:#0072a7"/><path d="M955.52,450.14a1.05,1.05,0,0,1-.15.57.9.9,0,0,1-.48.38,4,4,0,0,1-.92.23,10.7,10.7,0,0,1-1.38.08,11,11,0,0,1-1.42-.08,4.2,4.2,0,0,1-.93-.23,1.09,1.09,0,0,1-.53-.38,1,1,0,0,1-.16-.57v-4.83a24.67,24.67,0,0,1-6,4.87,13.66,13.66,0,0,1-6.8,1.75,13.93,13.93,0,0,1-6.85-1.57,12.9,12.9,0,0,1-4.61-4.22,18.45,18.45,0,0,1-2.58-6.25,34.25,34.25,0,0,1-.81-7.57,33.19,33.19,0,0,1,1-8.5,18.88,18.88,0,0,1,3-6.47,13.33,13.33,0,0,1,4.93-4.12,15.29,15.29,0,0,1,6.8-1.44,12.31,12.31,0,0,1,5.86,1.4,20.58,20.58,0,0,1,5.26,4.12V396.08a1.21,1.21,0,0,1,.14-.55.93.93,0,0,1,.55-.4,5.76,5.76,0,0,1,1-.25,11.58,11.58,0,0,1,1.61-.1,12.28,12.28,0,0,1,1.66.1,4.76,4.76,0,0,1,1,.25,1.11,1.11,0,0,1,.55.4,1,1,0,0,1,.19.55Zm-6.74-25.69a26,26,0,0,0-5.26-5.13,9.1,9.1,0,0,0-5.29-1.77,7.55,7.55,0,0,0-4.35,1.22A9.42,9.42,0,0,0,931,422a15.55,15.55,0,0,0-1.62,4.51,25.67,25.67,0,0,0-.51,5.11,33.16,33.16,0,0,0,.43,5.4,15.36,15.36,0,0,0,1.48,4.69,9.09,9.09,0,0,0,2.8,3.29,7.4,7.4,0,0,0,4.38,1.23,9.24,9.24,0,0,0,2.58-.36,10,10,0,0,0,2.54-1.22,19.12,19.12,0,0,0,2.71-2.21,33.89,33.89,0,0,0,3-3.35Z" style="fill:#0072a7"/><path d="M1000.89,430.29a2.82,2.82,0,0,1-.79,2.26,2.78,2.78,0,0,1-1.82.67h-24a22.33,22.33,0,0,0,.61,5.47,10.55,10.55,0,0,0,2,4.18,9.1,9.1,0,0,0,3.71,2.68,14.65,14.65,0,0,0,5.59.94,22.44,22.44,0,0,0,4.65-.43,26.92,26.92,0,0,0,3.52-.95c1-.35,1.81-.67,2.45-1a4,4,0,0,1,1.45-.42,1,1,0,0,1,.51.14,1,1,0,0,1,.35.43,3,3,0,0,1,.18.79,10.81,10.81,0,0,1,.06,1.24,8.12,8.12,0,0,1,0,.91c0,.26-.06.49-.1.69a2,2,0,0,1-.2.55,2.57,2.57,0,0,1-.37.46,5.65,5.65,0,0,1-1.32.73,19.68,19.68,0,0,1-2.84,1c-1.16.32-2.51.61-4,.87a29.19,29.19,0,0,1-4.89.39,22.6,22.6,0,0,1-7.89-1.26,14.65,14.65,0,0,1-5.7-3.74,15.94,15.94,0,0,1-3.5-6.21,29,29,0,0,1-1.17-8.68,27.09,27.09,0,0,1,1.22-8.46,17.76,17.76,0,0,1,3.51-6.37,15.13,15.13,0,0,1,5.54-4,18,18,0,0,1,7.26-1.4,17.59,17.59,0,0,1,7.33,1.38,13.84,13.84,0,0,1,5,3.71,14.94,14.94,0,0,1,2.86,5.48,24,24,0,0,1,.91,6.72Zm-6.73-2c.08-3.51-.71-6.27-2.35-8.27s-4.09-3-7.33-3a9.6,9.6,0,0,0-4.37.94,9.48,9.48,0,0,0-3.15,2.47,11.63,11.63,0,0,0-2,3.59,15,15,0,0,0-.77,4.28Z" style="fill:#0072a7"/><path d="M1044.36,450.14a.9.9,0,0,1-.16.55,1.17,1.17,0,0,1-.53.38,3.79,3.79,0,0,1-1,.25,14.49,14.49,0,0,1-1.63.08,14.81,14.81,0,0,1-1.66-.08,3.79,3.79,0,0,1-1-.25,1.17,1.17,0,0,1-.53-.38.9.9,0,0,1-.16-.55V428.75a21.24,21.24,0,0,0-.49-5,10.63,10.63,0,0,0-1.42-3.29,6.16,6.16,0,0,0-2.42-2.11,7.63,7.63,0,0,0-3.43-.73,8.68,8.68,0,0,0-5,1.79,27.14,27.14,0,0,0-5.28,5.23v25.53a.9.9,0,0,1-.16.55,1.19,1.19,0,0,1-.52.38,4,4,0,0,1-1,.25,14.81,14.81,0,0,1-1.66.08,14.62,14.62,0,0,1-1.63-.08,4.19,4.19,0,0,1-1-.25,1.07,1.07,0,0,1-.53-.38,1,1,0,0,1-.14-.55V413.61a1.11,1.11,0,0,1,.12-.54,1,1,0,0,1,.49-.41,3,3,0,0,1,.93-.25,15,15,0,0,1,1.5-.06c.6,0,1.09,0,1.48.06a2.62,2.62,0,0,1,.92.25,1.25,1.25,0,0,1,.46.41.93.93,0,0,1,.15.54v4.83a22.38,22.38,0,0,1,6.14-5.05,13.24,13.24,0,0,1,6.19-1.6,13.81,13.81,0,0,1,6.15,1.23,11.09,11.09,0,0,1,4,3.31,13.07,13.07,0,0,1,2.21,4.85,28.73,28.73,0,0,1,.67,6.68Z" style="fill:#0072a7"/><path d="M1076.63,447.46a8.41,8.41,0,0,1-.16,1.87,2,2,0,0,1-.49,1,3.06,3.06,0,0,1-1,.61,8,8,0,0,1-1.48.47q-.84.18-1.77.3a14.56,14.56,0,0,1-1.87.13,14.11,14.11,0,0,1-4.87-.76,7.77,7.77,0,0,1-3.32-2.27,9.27,9.27,0,0,1-1.89-3.85,22.82,22.82,0,0,1-.59-5.5V418.12h-5.11a1.11,1.11,0,0,1-1-.65,4.59,4.59,0,0,1-.36-2.11,6.8,6.8,0,0,1,.1-1.3,3.77,3.77,0,0,1,.26-.87,1,1,0,0,1,.43-.49,1.25,1.25,0,0,1,.59-.14h5.07v-8.69a1.1,1.1,0,0,1,.14-.53,1.18,1.18,0,0,1,.53-.42,3.71,3.71,0,0,1,1-.27,14.62,14.62,0,0,1,1.63-.08,14.81,14.81,0,0,1,1.66.08,3.45,3.45,0,0,1,1,.27,1.26,1.26,0,0,1,.52.42,1,1,0,0,1,.17.53v8.69h9.37a1.15,1.15,0,0,1,.57.14,1.24,1.24,0,0,1,.43.49,2.71,2.71,0,0,1,.26.87,9.3,9.3,0,0,1,.08,1.3,4.59,4.59,0,0,1-.36,2.11,1.11,1.11,0,0,1-1,.65h-9.37v20.37a11.63,11.63,0,0,0,1.11,5.7,4.23,4.23,0,0,0,4,1.93,6.92,6.92,0,0,0,1.66-.18,12.07,12.07,0,0,0,1.3-.39c.38-.13.71-.26,1-.38a1.81,1.81,0,0,1,.73-.18.75.75,0,0,1,.38.1.65.65,0,0,1,.29.38,4.2,4.2,0,0,1,.18.77A8.19,8.19,0,0,1,1076.63,447.46Z" style="fill:#0072a7"/><path d="M1143.32,436.1a15.71,15.71,0,0,1-.63,4.56,13.43,13.43,0,0,1-1.77,3.76,13,13,0,0,1-2.73,2.92,15.91,15.91,0,0,1-3.62,2.11,20.85,20.85,0,0,1-4.3,1.28,29.36,29.36,0,0,1-5.26.43H1111.3a2.86,2.86,0,0,1-1.77-.63,2.63,2.63,0,0,1-.83-2.22V401.48a2.61,2.61,0,0,1,.83-2.21,2.86,2.86,0,0,1,1.77-.63h11.93a27.47,27.47,0,0,1,7.71.89,13.53,13.53,0,0,1,5,2.6,10.74,10.74,0,0,1,3,4.18,14.79,14.79,0,0,1,1,5.6,14,14,0,0,1-.45,3.57,11.51,11.51,0,0,1-1.31,3.14,10.61,10.61,0,0,1-2.2,2.58,11.54,11.54,0,0,1-3,1.87,12.72,12.72,0,0,1,4,1.48,12.43,12.43,0,0,1,3.27,2.74,12.81,12.81,0,0,1,2.21,3.9A14.25,14.25,0,0,1,1143.32,436.1Zm-10.51-23.5a10.68,10.68,0,0,0-.53-3.45,6.36,6.36,0,0,0-1.66-2.62,7.41,7.41,0,0,0-3-1.64,16.55,16.55,0,0,0-4.81-.57h-7.21v17h7.93a11.19,11.19,0,0,0,4.38-.71,7.85,7.85,0,0,0,2.75-1.9,7.5,7.5,0,0,0,1.6-2.8A10.85,10.85,0,0,0,1132.81,412.6Zm3.16,23.9a10.62,10.62,0,0,0-.75-4.14,7.91,7.91,0,0,0-2.18-3,9.7,9.7,0,0,0-3.61-1.85,19.85,19.85,0,0,0-5.45-.63h-8.34v18.51h10.13a13.74,13.74,0,0,0,4.17-.57,9.31,9.31,0,0,0,3.14-1.68,7.72,7.72,0,0,0,2.12-2.78A9,9,0,0,0,1136,436.5Z" style="fill:#0072a7"/><path d="M1176.32,416c0,.59,0,1.09,0,1.5a3.45,3.45,0,0,1-.17.95,1.39,1.39,0,0,1-.3.53.69.69,0,0,1-.51.18,2.3,2.3,0,0,1-.79-.18c-.31-.12-.66-.24-1-.37s-.84-.23-1.32-.34a7.23,7.23,0,0,0-1.58-.16,5.13,5.13,0,0,0-2,.4,7.69,7.69,0,0,0-2,1.34,17.18,17.18,0,0,0-2.26,2.48c-.78,1-1.65,2.29-2.59,3.77v24a.9.9,0,0,1-.17.55,1.14,1.14,0,0,1-.52.38,4,4,0,0,1-1,.25,14.81,14.81,0,0,1-1.66.08,14.62,14.62,0,0,1-1.63-.08,4.19,4.19,0,0,1-1-.25,1.07,1.07,0,0,1-.53-.38,1,1,0,0,1-.14-.55V413.61a1.11,1.11,0,0,1,.12-.54,1,1,0,0,1,.49-.41,3,3,0,0,1,.93-.25,15,15,0,0,1,1.5-.06c.6,0,1.09,0,1.48.06a2.62,2.62,0,0,1,.92.25,1.25,1.25,0,0,1,.46.41.93.93,0,0,1,.15.54v5.32a28.53,28.53,0,0,1,2.82-3.57,15.37,15.37,0,0,1,2.49-2.17,7.72,7.72,0,0,1,2.34-1.1,9.25,9.25,0,0,1,2.33-.3q.52,0,1.2.06a10.64,10.64,0,0,1,1.4.22,11.77,11.77,0,0,1,1.32.37,2.77,2.77,0,0,1,.83.4,1.17,1.17,0,0,1,.32.39,1.91,1.91,0,0,1,.15.46,6.27,6.27,0,0,1,.08.84C1176.31,414.89,1176.32,415.38,1176.32,416Z" style="fill:#0072a7"/><path d="M1211.59,450.18a.86.86,0,0,1-.32.73,2.35,2.35,0,0,1-.9.37,8.6,8.6,0,0,1-1.66.12,9.41,9.41,0,0,1-1.69-.12,2,2,0,0,1-.91-.37.89.89,0,0,1-.28-.73v-3.65a18.26,18.26,0,0,1-5.34,4,14.25,14.25,0,0,1-6.23,1.42,17,17,0,0,1-5.22-.75,11.37,11.37,0,0,1-4-2.18,9.65,9.65,0,0,1-2.56-3.49,11.52,11.52,0,0,1-.91-4.7,11,11,0,0,1,1.25-5.36,10.46,10.46,0,0,1,3.62-3.78,17.68,17.68,0,0,1,5.76-2.25,35.81,35.81,0,0,1,7.67-.75h5v-2.84a14.41,14.41,0,0,0-.44-3.73,6,6,0,0,0-4-4.33,12.23,12.23,0,0,0-3.9-.54,15.56,15.56,0,0,0-4.44.58,24.86,24.86,0,0,0-3.45,1.3c-1,.48-1.81.91-2.48,1.3a3.41,3.41,0,0,1-1.48.59,1,1,0,0,1-.57-.16,1.37,1.37,0,0,1-.42-.49,2.45,2.45,0,0,1-.27-.83,7.66,7.66,0,0,1-.08-1.12,7.44,7.44,0,0,1,.14-1.6,2.47,2.47,0,0,1,.69-1.12,9.41,9.41,0,0,1,1.89-1.24,20.55,20.55,0,0,1,3.09-1.29,27.1,27.1,0,0,1,3.81-1,22.49,22.49,0,0,1,4.18-.38,21.79,21.79,0,0,1,6.7.89,10.72,10.72,0,0,1,4.46,2.62,10.13,10.13,0,0,1,2.48,4.28,20.83,20.83,0,0,1,.77,6Zm-6.66-16.68h-5.72a21.63,21.63,0,0,0-4.79.47,9.91,9.91,0,0,0-3.37,1.38,5.76,5.76,0,0,0-2,2.19,6.55,6.55,0,0,0-.63,2.94,5.93,5.93,0,0,0,1.81,4.53,7.15,7.15,0,0,0,5,1.68,9.42,9.42,0,0,0,4.89-1.34,20.82,20.82,0,0,0,4.73-4.1Z" style="fill:#0072a7"/><path d="M1257.17,450.14a.9.9,0,0,1-.16.55,1.23,1.23,0,0,1-.53.38,3.79,3.79,0,0,1-1,.25,14.62,14.62,0,0,1-1.63.08,14.81,14.81,0,0,1-1.66-.08,3.88,3.88,0,0,1-1-.25,1.14,1.14,0,0,1-.52-.38.9.9,0,0,1-.17-.55V428.75a21.31,21.31,0,0,0-.48-5,10.63,10.63,0,0,0-1.42-3.29,6.23,6.23,0,0,0-2.42-2.11,7.63,7.63,0,0,0-3.43-.73,8.66,8.66,0,0,0-5,1.79,27.14,27.14,0,0,0-5.28,5.23v25.53a.9.9,0,0,1-.16.55,1.17,1.17,0,0,1-.53.38,3.79,3.79,0,0,1-1,.25,15,15,0,0,1-1.67.08,14.29,14.29,0,0,1-1.62-.08,4.08,4.08,0,0,1-1-.25,1,1,0,0,1-.53-.38,1,1,0,0,1-.14-.55V413.61a1.11,1.11,0,0,1,.12-.54,1.06,1.06,0,0,1,.48-.41,3.12,3.12,0,0,1,.94-.25,15,15,0,0,1,1.5-.06c.59,0,1.09,0,1.48.06a2.56,2.56,0,0,1,.91.25,1.21,1.21,0,0,1,.47.41.93.93,0,0,1,.14.54v4.83a22.56,22.56,0,0,1,6.15-5.05,13.21,13.21,0,0,1,6.19-1.6,13.81,13.81,0,0,1,6.15,1.23,11.18,11.18,0,0,1,4,3.31,13.23,13.23,0,0,1,2.21,4.85,28.73,28.73,0,0,1,.67,6.68Z" style="fill:#0072a7"/><path d="M1297.47,444.58c0,.46,0,.86,0,1.2a3.67,3.67,0,0,1-.14.85,3.88,3.88,0,0,1-.24.61,4.4,4.4,0,0,1-.65.77,9.71,9.71,0,0,1-1.73,1.26,16.25,16.25,0,0,1-2.74,1.34,20.29,20.29,0,0,1-3.3.95,18.72,18.72,0,0,1-3.7.37,17.77,17.77,0,0,1-7-1.3,13.18,13.18,0,0,1-5.09-3.8,17.14,17.14,0,0,1-3.13-6.13,29.81,29.81,0,0,1-1.07-8.38,28.84,28.84,0,0,1,1.32-9.27,17.51,17.51,0,0,1,3.61-6.35A14.33,14.33,0,0,1,1279,413a18.68,18.68,0,0,1,6.71-1.19,17.88,17.88,0,0,1,3.39.32,19,19,0,0,1,3,.85,14,14,0,0,1,2.45,1.22,9.67,9.67,0,0,1,1.57,1.18,5,5,0,0,1,.66.77,2.44,2.44,0,0,1,.31.67,4.35,4.35,0,0,1,.16.87c0,.33,0,.73,0,1.22a4.82,4.82,0,0,1-.36,2.21,1.07,1.07,0,0,1-.9.63,2.31,2.31,0,0,1-1.4-.67,20.47,20.47,0,0,0-2-1.48,15.29,15.29,0,0,0-3-1.48,11.18,11.18,0,0,0-4.08-.67,8.46,8.46,0,0,0-7.4,3.71q-2.58,3.72-2.58,10.78a25.4,25.4,0,0,0,.67,6.19,12.78,12.78,0,0,0,2,4.44,8,8,0,0,0,3.18,2.66,10.24,10.24,0,0,0,4.33.87,10.35,10.35,0,0,0,4-.73,17.09,17.09,0,0,0,3-1.6c.85-.58,1.57-1.11,2.15-1.58a2.48,2.48,0,0,1,1.36-.71.76.76,0,0,1,.49.16,1.24,1.24,0,0,1,.34.55,3.74,3.74,0,0,1,.2,1C1297.45,443.57,1297.47,444,1297.47,444.58Z" style="fill:#0072a7"/><path d="M1339.65,450.14a.9.9,0,0,1-.17.55,1.14,1.14,0,0,1-.52.38,4,4,0,0,1-1,.25,14.29,14.29,0,0,1-1.62.08,15,15,0,0,1-1.67-.08,3.79,3.79,0,0,1-1-.25,1.23,1.23,0,0,1-.53-.38.9.9,0,0,1-.16-.55V428.75a20.72,20.72,0,0,0-.49-5,10.39,10.39,0,0,0-1.42-3.29,6.21,6.21,0,0,0-2.41-2.11,7.63,7.63,0,0,0-3.43-.73,8.69,8.69,0,0,0-5,1.79,27.4,27.4,0,0,0-5.27,5.23v25.53a1,1,0,0,1-.16.55,1.23,1.23,0,0,1-.53.38,3.88,3.88,0,0,1-1,.25,14.81,14.81,0,0,1-1.66.08,14.29,14.29,0,0,1-1.62-.08,4.17,4.17,0,0,1-1-.25,1.07,1.07,0,0,1-.53-.38,1,1,0,0,1-.14-.55V395.92a1.15,1.15,0,0,1,.14-.57,1.1,1.1,0,0,1,.53-.41,4.22,4.22,0,0,1,1-.24,14.29,14.29,0,0,1,1.62-.08,14.81,14.81,0,0,1,1.66.08,3.93,3.93,0,0,1,1,.24,1.27,1.27,0,0,1,.53.41,1.06,1.06,0,0,1,.16.57v21.87a21.56,21.56,0,0,1,5.8-4.52,12.88,12.88,0,0,1,5.89-1.48,13.87,13.87,0,0,1,6.15,1.23,11.06,11.06,0,0,1,4,3.31,13.24,13.24,0,0,1,2.22,4.85,29.53,29.53,0,0,1,.67,6.72Z" style="fill:#0072a7"/></svg>